<svg width="80" height="89" viewBox="0 0 80 89" fill="none" xmlns="http://www.w3.org/2000/svg">
<path fill-rule="evenodd" clip-rule="evenodd" d="M40 18.3173L70 51.6923V75.0938C70 77.3066 69.2098 79.4289 67.8033 80.9937C66.3968 82.5584 64.4891 83.4375 62.5 83.4375H17.5C15.5109 83.4375 13.6032 82.5584 12.1967 80.9937C10.7902 79.4289 10 77.3066 10 75.0938V51.6923L40 18.3173ZM65 13.9062V33.375L55 22.25V13.9062C55 13.1686 55.2634 12.4612 55.7322 11.9396C56.2011 11.418 56.837 11.125 57.5 11.125H62.5C63.163 11.125 63.7989 11.418 64.2678 11.9396C64.7366 12.4612 65 13.1686 65 13.9062Z" fill="black"/>
<path fill-rule="evenodd" clip-rule="evenodd" d="M36.465 8.34377C37.4026 7.30097 38.6742 6.71515 40 6.71515C41.3258 6.71515 42.5973 7.30097 43.535 8.34377L76.77 45.3121C77.2394 45.8344 77.5031 46.5427 77.5031 47.2813C77.5031 48.0198 77.2394 48.7282 76.77 49.2504C76.3006 49.7726 75.6639 50.066 75 50.066C74.3361 50.066 73.6994 49.7726 73.23 49.2504L40 12.2765L6.76998 49.2504C6.30055 49.7726 5.66386 50.066 4.99998 50.066C4.33611 50.066 3.69942 49.7726 3.22998 49.2504C2.76055 48.7282 2.49683 48.0198 2.49683 47.2813C2.49683 46.5427 2.76055 45.8344 3.22998 45.3121L36.465 8.34377Z" fill="black"/>
</svg>
