<svg width="72" height="107" viewBox="0 0 72 107" fill="none" xmlns="http://www.w3.org/2000/svg">
<path d="M69.75 23.4063C70.3467 23.4063 70.919 23.7585 71.341 24.3856C71.7629 25.0127 72 25.8632 72 26.75V80.25C72 81.1368 71.7629 81.9873 71.341 82.6144C70.919 83.2415 70.3467 83.5938 69.75 83.5938C69.1533 83.5938 68.581 83.2415 68.159 82.6144C67.7371 81.9873 67.5 81.1368 67.5 80.25V58.5357L39.2985 82.8514C36.8685 84.9446 33.75 82.4101 33.75 78.1903V58.529L5.5485 82.8448C3.1185 84.9513 0 82.4168 0 78.1969V28.8098C0 24.5966 3.1185 22.0554 5.5485 24.1553L33.75 48.471V28.8098C33.75 24.5966 36.8685 22.0554 39.2985 24.1553L67.5 48.471V26.75C67.5 25.8632 67.7371 25.0127 68.159 24.3856C68.581 23.7585 69.1533 23.4063 69.75 23.4063Z" fill="black"/>
</svg>
