<svg width="70" height="70" viewBox="0 0 57 54" fill="none" xmlns="http://www.w3.org/2000/svg">
<path fill-rule="evenodd" clip-rule="evenodd" d="M28.5 10.125C24.6502 10.1264 20.9045 11.3094 17.824 13.4968C14.7434 15.6841 12.4938 18.7581 11.412 22.2584C10.3303 25.7586 10.4747 29.4967 11.8236 32.9127C13.1725 36.3286 15.6532 39.2386 18.8943 41.2069C22.1354 43.1751 25.9624 44.0955 29.802 43.8303C33.6416 43.5652 37.2872 42.1286 40.1927 39.7359C43.0982 37.3432 45.1073 34.1231 45.919 30.5579C46.7307 26.9927 46.3013 23.2744 44.6952 19.9598C44.5203 19.5568 44.5168 19.1053 44.6853 18.6999C44.8539 18.2945 45.1814 17.9666 45.5993 17.7848C46.0172 17.6029 46.4932 17.5813 46.9276 17.7244C47.362 17.8674 47.7212 18.1641 47.9299 18.5524C49.8572 22.5301 50.3722 26.9923 49.3979 31.2707C48.4236 35.549 46.0123 39.4131 42.5253 42.2842C39.0383 45.1553 34.6633 46.8788 30.0556 47.1966C25.4478 47.5143 20.8555 46.4092 16.9663 44.0469C13.0772 41.6845 10.1006 38.1919 8.48256 34.0924C6.86448 29.9928 6.69196 25.507 7.99084 21.3068C9.28972 17.1065 11.9901 13.418 15.6874 10.7938C19.3848 8.16951 23.8801 6.75074 28.5 6.75V10.125Z" fill="black"/>
<path d="M28.5 15.0727V1.80224C28.5001 1.64191 28.5483 1.48492 28.6392 1.34965C28.73 1.21438 28.8597 1.10643 29.0129 1.03844C29.1662 0.970444 29.3367 0.945225 29.5046 0.965733C29.6724 0.986242 29.8306 1.05163 29.9606 1.15424L38.3681 7.78949C38.7956 8.12699 38.7956 8.74798 38.3681 9.08549L29.9606 15.7207C29.8306 15.8233 29.6724 15.8887 29.5046 15.9092C29.3367 15.9297 29.1662 15.9045 29.0129 15.8365C28.8597 15.7685 28.73 15.6606 28.6392 15.5253C28.5483 15.39 28.5001 15.2331 28.5 15.0727Z" fill="black"/>
</svg>
