<svg width="70" height="70" viewBox="0 0 64 61" fill="none" xmlns="http://www.w3.org/2000/svg">
<path d="M32 57.1875C24.5739 57.1875 17.452 54.3758 12.201 49.3709C6.94999 44.366 4 37.578 4 30.5C4 23.422 6.94999 16.634 12.201 11.6291C17.452 6.62421 24.5739 3.8125 32 3.8125C39.4261 3.8125 46.548 6.62421 51.799 11.6291C57.05 16.634 60 23.422 60 30.5C60 37.578 57.05 44.366 51.799 49.3709C46.548 54.3758 39.4261 57.1875 32 57.1875ZM32 61C40.4869 61 48.6263 57.7866 54.6274 52.0668C60.6286 46.3469 64 38.5891 64 30.5C64 22.4109 60.6286 14.6531 54.6274 8.93324C48.6263 3.21338 40.4869 0 32 0C23.5131 0 15.3737 3.21338 9.37258 8.93324C3.37142 14.6531 0 22.4109 0 30.5C0 38.5891 3.37142 46.3469 9.37258 52.0668C15.3737 57.7866 23.5131 61 32 61Z" fill="black"/>
<path d="M20 23.8281C20 22.5642 20.5268 21.352 21.4645 20.4583C22.4021 19.5646 23.6739 19.0625 25 19.0625C26.3261 19.0625 27.5979 19.5646 28.5355 20.4583C29.4732 21.352 30 22.5642 30 23.8281V37.1719C30 38.4358 29.4732 39.648 28.5355 40.5417C27.5979 41.4354 26.3261 41.9375 25 41.9375C23.6739 41.9375 22.4021 41.4354 21.4645 40.5417C20.5268 39.648 20 38.4358 20 37.1719V23.8281ZM34 23.8281C34 22.5642 34.5268 21.352 35.4645 20.4583C36.4021 19.5646 37.6739 19.0625 39 19.0625C40.3261 19.0625 41.5979 19.5646 42.5355 20.4583C43.4732 21.352 44 22.5642 44 23.8281V37.1719C44 38.4358 43.4732 39.648 42.5355 40.5417C41.5979 41.4354 40.3261 41.9375 39 41.9375C37.6739 41.9375 36.4021 41.4354 35.4645 40.5417C34.5268 39.648 34 38.4358 34 37.1719V23.8281Z" fill="black"/>
</svg>
