<svg width="70" height="70" viewBox="0 0 76 73" fill="none" xmlns="http://www.w3.org/2000/svg">
<path d="M54.796 63.9206C58.551 60.3239 61.5289 56.0498 63.5587 51.3441C65.5884 46.6383 66.63 41.5936 66.6235 36.5C66.63 31.4064 65.5884 26.3617 63.5587 21.6559C61.5289 16.9502 58.551 12.6761 54.796 9.07938L51.433 12.3051C54.7462 15.4787 57.3738 19.25 59.1647 23.4022C60.9556 27.5544 61.8746 32.0056 61.8687 36.5C61.8687 45.9489 57.8787 54.5036 51.433 60.6949L54.796 63.9206Z" fill="black"/>
<path d="M48.0748 57.4693C50.9461 54.7186 53.2232 51.4501 54.7752 47.8515C56.3273 44.2529 57.1237 40.3952 57.1188 36.5C57.1237 32.6048 56.3273 28.7471 54.7752 25.1485C53.2232 21.55 50.9461 18.2814 48.0748 15.5308L44.7166 18.7564C47.1461 21.084 49.0728 23.8497 50.3861 26.8948C51.6993 29.9398 52.3731 33.2041 52.3688 36.5C52.3744 39.7964 51.7016 43.0614 50.3892 46.1072C49.0767 49.153 47.1505 51.9197 44.7213 54.2481L48.0748 57.4693Z" fill="black"/>
<path d="M41.3582 51.0179C43.346 49.1135 44.9224 46.8505 45.9968 44.359C47.0712 41.8676 47.6224 39.1967 47.6187 36.5C47.6224 33.8033 47.0712 31.1324 45.9968 28.641C44.9224 26.1495 43.346 23.8866 41.3582 21.9821L38 25.2078C39.5461 26.6891 40.7721 28.4493 41.6076 30.3872C42.4432 32.3251 42.8718 34.4025 42.8687 36.5C42.8715 38.5975 42.4428 40.6748 41.6073 42.6127C40.7717 44.5505 39.5458 46.3107 38 47.7922L41.3582 51.0179ZM31.9058 16.1969C32.3081 16.3831 32.6477 16.6745 32.8855 17.0376C33.1232 17.4008 33.2496 17.821 33.25 18.25V54.75C33.2494 55.1793 33.1226 55.5997 32.8844 55.9628C32.6462 56.326 32.3061 56.6173 31.9033 56.8031C31.5004 56.989 31.0511 57.0619 30.6071 57.0135C30.163 56.965 29.7422 56.7972 29.393 56.5294L18.1687 47.9063H7.125C6.49511 47.9063 5.89102 47.6659 5.44562 47.2381C5.00022 46.8103 4.75 46.23 4.75 45.625V27.375C4.75 26.77 5.00022 26.1897 5.44562 25.7619C5.89102 25.3341 6.49511 25.0938 7.125 25.0938H18.1687L29.393 16.4706C29.7425 16.2023 30.1637 16.0342 30.6083 15.9858C31.0528 15.9374 31.5026 16.0106 31.9058 16.1969Z" fill="black"/>
</svg>
